<svg xmlns="http://www.w3.org/2000/svg" xmlns:xlink="http://www.w3.org/1999/xlink" viewBox="0 0 220 220" width="220" height="220" style="width: 100%; height: 100%; transform: translate3d(0px, 0px, 0px);" preserveAspectRatio="xMidYMid meet"><defs><clipPath id="__lottie_element_8"><rect width="220" height="220" x="0" y="0"></rect></clipPath></defs><g clip-path="url(#__lottie_element_8)"><g style="display: block;" transform="matrix(0.35353729128837585,0.02610800229012966,-0.02610800229012966,0.35353729128837585,47.99211883544922,17.681747436523438)" opacity="1"><g opacity="1" transform="matrix(0.9987927675247192,0.04912290349602699,-0.04912290349602699,0.9987927675247192,120.68299865722656,378.6809997558594)"><path fill="rgb(255,255,255)" fill-opacity="1" d=" M46.334999084472656,-46.33399963378906 C20.785999298095703,-71.87200164794922 -16.732999801635742,-70.06999969482422 -44.87799835205078,-41.92399978637695 C-62.94300079345703,-23.8700008392334 -71.87200164794922,21.316999435424805 -69.40599822998047,69.38400268554688 C-21.121999740600586,71.87200164794922 23.93600082397461,62.85599899291992 41.92399978637695,44.85599899291992 C70.06900024414062,16.722000122070312 71.87200164794922,-20.79599952697754 46.334999084472656,-46.33399963378906z M12.149999618530273,16.777000427246094 C6.1539998054504395,22.773000717163086 -8.869000434875488,25.781999588012695 -24.95599937438965,24.945999145507812 C-25.781999588012695,8.92300033569336 -22.805999755859375,-6.131999969482422 -16.788000106811523,-12.149999618530273 C-7.4029998779296875,-21.535999298095703 5.099999904632568,-22.132999420166016 13.616000175476074,-13.626999855041504 C22.132999420166016,-5.111999988555908 21.524999618530273,7.390999794006348 12.149999618530273,16.777000427246094z"></path></g></g><g style="display: block;" transform="matrix(0.3799634873867035,0.005267487373203039,-0.005267487373203039,0.3799634873867035,31.499000549316406,16.498794555664062)" opacity="1"><g opacity="1" transform="matrix(0.9999503493309021,0.009965664707124233,0.019956720992922783,1.0002485513687134,275.07598876953125,229.60899353027344)"><path fill="rgb(255,255,255)" fill-opacity="1" d=" M160.18299865722656,-152.3520050048828 C159.41900634765625,-155.90899658203125 155.9010009765625,-159.42599487304688 152.33299255371094,-160.19000244140625 C131.6280059814453,-164.6320037841797 115.41600036621094,-164.6320037841797 99.27400207519531,-164.6320037841797 C32.88600158691406,-164.6320037841797 -6.925000190734863,-129.13099670410156 -36.645999908447266,-82.31600189208984 C-36.645999908447266,-82.31600189208984 -103.66600036621094,-82.31600189208984 -103.66600036621094,-82.31600189208984 C-114.17900085449219,-82.30500030517578 -126.53199768066406,-74.67900085449219 -131.24600219726562,-65.28399658203125 C-131.24600219726562,-65.28399658203125 -163.03700256347656,-1.7380000352859497 -163.03700256347656,-1.7380000352859497 C-164.02000427246094,0.42899999022483826 -164.57000732421875,2.7669999599456787 -164.656005859375,5.144999980926514 C-164.65199279785156,13.668999671936035 -157.74200439453125,20.577999114990234 -149.21800231933594,20.57900047302246 C-149.21800231933594,20.57900047302246 -82.45800018310547,20.57900047302246 -82.45800018310547,20.57900047302246 C-82.45800018310547,20.57900047302246 -96.91100311279297,35.02799987792969 -96.91100311279297,35.02799987792969 C-104.22000122070312,42.334999084472656 -105.26899719238281,55.77299880981445 -96.91100311279297,64.12899780273438 C-96.91100311279297,64.12899780273438 -64.17500305175781,96.86599731445312 -64.17500305175781,96.86599731445312 C-57,104.05999755859375 -43.494998931884766,105.32599639892578 -35.05699920654297,96.86599731445312 C-35.05699920654297,96.86599731445312 -20.604999542236328,82.41600036621094 -20.604999542236328,82.41600036621094 C-20.604999542236328,82.41600036621094 -20.604999542236328,149.19700622558594 -20.604999542236328,149.19700622558594 C-20.60099983215332,157.7209930419922 -13.690999984741211,164.63099670410156 -5.165999889373779,164.6320037841797 C-2.7880001068115234,164.54400634765625 -0.44999998807907104,163.99400329589844 1.718999981880188,163.01300048828125 C1.718999981880188,163.01300048828125 65.21099853515625,131.25100708007812 65.21099853515625,131.25100708007812 C74.61799621582031,126.55799865722656 82.25700378417969,114.20899963378906 82.25700378417969,103.68800354003906 C82.25700378417969,103.68800354003906 82.25700378417969,36.5260009765625 82.25700378417969,36.5260009765625 C128.94400024414062,6.742000102996826 164.59500122070312,-33.189998626708984 164.59500122070312,-99.22699737548828 C164.656005859375,-115.43499755859375 164.656005859375,-131.64300537109375 160.18299865722656,-152.3520050048828z M82.31800079345703,-56.59199905395508 C68.11100006103516,-56.595001220703125 56.59600067138672,-68.11499786376953 56.599998474121094,-82.3219985961914 C56.60300064086914,-96.52899932861328 68.1240005493164,-108.04299926757812 82.33000183105469,-108.03900146484375 C96.53500366210938,-108.03600311279297 108.0469970703125,-96.5199966430664 108.0469970703125,-82.31600189208984 C108.04000091552734,-68.11000061035156 96.52300262451172,-56.59700012207031 82.31800079345703,-56.59199905395508z"></path></g></g></g></svg>